<svg width="55" height="55" viewBox="0 0 55 55" fill="none" xmlns="http://www.w3.org/2000/svg">
<rect width="55" height="55" fill="url(#paint0_linear_154_367)"/>
<path d="M19.4148 17.078H35.1855L23.8369 35.0202H34.504V38H17.9407L29.3052 20.0578H19.4148V17.078Z" fill="black"/>
<path d="M27.5 35V35.5H28.5V35H28H27.5ZM28.5 32C28.5 31.7239 28.2761 31.5 28 31.5C27.7239 31.5 27.5 31.7239 27.5 32H28H28.5ZM28 35H28.5V32H28H27.5V35H28Z" fill="black"/>
<path d="M33.5 35V35.5H34.5V35H34H33.5ZM34.5 26C34.5 25.7239 34.2761 25.5 34 25.5C33.7239 25.5 33.5 25.7239 33.5 26H34H34.5ZM34 35H34.5V26H34H33.5V35H34Z" fill="black"/>
<path d="M30.5 35V35.5H31.5V35H31H30.5ZM31.5 29C31.5 28.7239 31.2761 28.5 31 28.5C30.7239 28.5 30.5 28.7239 30.5 29H31H31.5ZM31 35H31.5V29H31H30.5V35H31Z" fill="black"/>
<defs>
<linearGradient id="paint0_linear_154_367" x1="27.5" y1="0" x2="27.5" y2="55" gradientUnits="userSpaceOnUse">
<stop stop-color="#60C043"/>
<stop offset="1" stop-color="#B8C56C"/>
</linearGradient>
</defs>
</svg>
