<svg width="123" height="108" viewBox="0 0 123 108" fill="none" xmlns="http://www.w3.org/2000/svg">
<path d="M15.375 0.375C8.05823 0.375 1.93517 5.48593 0.381188 12.3324L61.5 49.6828L122.619 12.3324C121.065 5.48593 114.942 0.375 107.625 0.375H15.375Z" fill="#426835"/>
<path d="M0 75.717V21.1088L44.6121 48.3718L0 75.717Z" fill="#426835"/>
<path d="M51.9783 52.8733L1.47501 83.8297C3.94064 89.0293 9.23791 92.625 15.375 92.625H63.4685C62.1936 89.0183 61.5 85.137 61.5 81.0938C61.5 70.4613 66.2967 60.9492 73.8442 54.6034L71.0217 52.8733L61.5 58.6922L51.9783 52.8733Z" fill="#426835"/>
<path d="M123 59.3484V21.1088L78.3879 48.3718L80.9863 49.9644C85.5509 47.745 90.677 46.5 96.0938 46.5C106.961 46.5 116.658 51.511 123 59.3484Z" fill="#426835"/>
<path d="M121.723 79.1275C121.723 88.1018 117.286 94.6897 109.522 94.6897C105.656 94.6897 101.825 92.9419 100.917 89.7152H100.581C99.6734 92.9083 96.4131 94.6561 92.783 94.6561C86.8673 94.6561 83.1028 90.4883 83.1028 83.6314V79.5644C83.1028 73.0773 86.8001 68.8086 92.783 68.8086C97.287 68.8086 99.4717 71.3631 100.11 73.6487H100.346V69.2792H107.303V86.1187C107.303 88.2027 108.681 89.3455 110.463 89.3455C112.883 89.3455 115.37 86.1523 115.37 78.6569V77.7494C115.37 67.9347 108.076 59.8679 96.2786 59.8679H95.9761C83.8086 59.8679 75.6746 68.0692 75.6746 80.8081V82.0181C75.6746 96.3703 85.1867 102.42 95.4383 102.42H95.7744C99.6734 102.42 102.967 101.883 104.85 101.042V106.656C103.169 107.429 99.9087 108 95.3375 108H95.0014C80.2458 108 69.1875 98.9248 69.1875 82.2197V80.5728C69.1875 64.6408 80.1113 54.1875 95.9761 54.1875H96.245C112.547 54.1875 121.723 65.1786 121.723 77.5141V79.1275ZM90.6654 80.7408V82.4886C90.6654 86.9926 92.4133 88.6396 95.1358 88.6396C97.5223 88.6396 99.4717 87.3287 99.4717 82.9256V80.1022C99.4717 76.136 97.3542 74.6571 95.0686 74.6571C92.4133 74.6571 90.6654 76.5393 90.6654 80.7408Z" fill="#426835"/>
</svg>
