<svg width="100" height="114" viewBox="0 0 100 114" fill="none" xmlns="http://www.w3.org/2000/svg">
<path d="M50.0009 0C54.9135 0.000109145 63.1295 1.89041 70.8651 3.9873C78.7745 6.13131 86.7431 8.65405 91.4305 10.1836C95.3423 11.4601 98.3008 14.9174 98.869 19.1816C103.12 51.0823 93.2629 74.7192 81.3075 90.3594C75.3523 98.15 68.8795 103.957 63.3729 107.84C60.6219 109.78 58.0723 111.268 55.9071 112.287C53.9065 113.229 51.7657 114 50.0009 114C48.2361 114 46.0953 113.229 44.0946 112.287C41.9293 111.268 39.379 109.78 36.6278 107.84C31.1213 103.957 24.6485 98.15 18.6932 90.3594C6.73783 74.7192 -3.11907 51.0823 1.13171 19.1816C1.69994 14.9174 4.65853 11.4601 8.57019 10.1836C13.2576 8.65405 21.2263 6.13131 29.1356 3.9873C36.8714 1.89035 45.0882 0 50.0009 0ZM50.0009 35.625C44.0983 35.625 39.3134 40.41 39.3134 46.3125C39.3134 50.9659 42.2874 54.9244 46.4384 56.3916L43.6952 70.5732C43.2701 72.7714 44.9544 74.8125 47.1932 74.8125H52.8075C55.0464 74.8125 56.7307 72.7714 56.3055 70.5732L53.5634 56.3916C57.7141 54.9243 60.6884 50.9657 60.6884 46.3125C60.6884 40.4101 55.9032 35.6252 50.0009 35.625Z" fill="#426835"/>
</svg>
