<svg width="10" height="12" viewBox="0 0 10 12" fill="pink" xmlns="http://www.w3.org/2000/svg">
<path fill-rule="evenodd" clip-rule="evenodd" d="M5 0C5.88405 0 6.7319 0.316071 7.35702 0.87868C7.98214 1.44129 8.33333 2.20435 8.33333 3V4.5375C8.8039 4.62395 9.22683 4.85407 9.53054 5.18891C9.83426 5.52375 10.0001 5.94276 10 6.375V10.125C10 10.6223 9.78051 11.0992 9.38981 11.4508C8.9991 11.8025 8.4692 12 7.91667 12H2.08333C1.5308 12 1.0009 11.8025 0.610194 11.4508C0.219493 11.0992 4.34285e-08 10.6223 4.34285e-08 10.125V6.375C-9.79794e-05 5.94276 0.165743 5.52375 0.469456 5.18891C0.773168 4.85407 1.1961 4.62395 1.66667 4.5375V3C1.66667 2.20435 2.01786 1.44129 2.64298 0.87868C3.2681 0.316071 4.11594 0 5 0ZM5 0.75C4.33696 0.75 3.70107 0.987053 3.23223 1.40901C2.76339 1.83097 2.5 2.40326 2.5 3V4.5H7.5V3C7.5 2.40326 7.23661 1.83097 6.76777 1.40901C6.29893 0.987053 5.66304 0.75 5 0.75Z" fill="#A9A9A9"/>
</svg>
