<svg width="16" height="16" viewBox="0 0 16 16" fill="none" xmlns="http://www.w3.org/2000/svg">
<path d="M8.707 1.49982C8.51947 1.31235 8.26516 1.20703 8 1.20703C7.73483 1.20703 7.48053 1.31235 7.293 1.49982L0.645998 8.14582C0.59951 8.19231 0.562634 8.24749 0.537475 8.30823C0.512316 8.36897 0.499367 8.43407 0.499367 8.49982C0.499367 8.56556 0.512316 8.63066 0.537475 8.6914C0.562634 8.75214 0.59951 8.80733 0.645998 8.85382C0.739885 8.9477 0.867223 9.00045 0.999998 9.00045C1.06574 9.00045 1.13084 8.9875 1.19158 8.96234C1.25232 8.93718 1.30751 8.90031 1.354 8.85382L2 8.20682V13.4998C2 13.8976 2.15803 14.2792 2.43934 14.5605C2.72064 14.8418 3.10217 14.9998 3.5 14.9998H12.5C12.8978 14.9998 13.2794 14.8418 13.5607 14.5605C13.842 14.2792 14 13.8976 14 13.4998V8.20682L14.646 8.85382C14.7399 8.9477 14.8672 9.00045 15 9.00045C15.1328 9.00045 15.2601 8.9477 15.354 8.85382C15.4479 8.75993 15.5006 8.63259 15.5006 8.49982C15.5006 8.36704 15.4479 8.2397 15.354 8.14582L13 5.79282V2.49982C13 2.36721 12.9473 2.24003 12.8536 2.14626C12.7598 2.0525 12.6326 1.99982 12.5 1.99982H11.5C11.3674 1.99982 11.2402 2.0525 11.1464 2.14626C11.0527 2.24003 11 2.36721 11 2.49982V3.79282L8.707 1.49982ZM13 7.20682V13.4998C13 13.6324 12.9473 13.7596 12.8536 13.8534C12.7598 13.9471 12.6326 13.9998 12.5 13.9998H3.5C3.36739 13.9998 3.24021 13.9471 3.14645 13.8534C3.05268 13.7596 3 13.6324 3 13.4998V7.20682L8 2.20682L13 7.20682Z" fill="#A9A9A9"/>
</svg>
