<svg width="14" height="14" viewBox="0 0 14 14" fill="none" xmlns="http://www.w3.org/2000/svg">
<path fill-rule="evenodd" clip-rule="evenodd" d="M7 0C6.31 0 5.157 0.231875 4.072 0.49C2.962 0.7525 1.843 1.06312 1.185 1.25125C0.909896 1.33074 0.665996 1.47653 0.481322 1.67186C0.296648 1.86719 0.178693 2.10415 0.141005 2.3555C-0.454994 6.27288 0.928004 9.17613 2.606 11.0968C3.31785 11.9181 4.16625 12.6416 5.123 13.2431C5.509 13.482 5.867 13.6649 6.171 13.79C6.451 13.9055 6.752 14 7 14C7.248 14 7.548 13.9055 7.829 13.79C8.19586 13.6347 8.54652 13.4518 8.877 13.2431C9.83375 12.6416 10.6822 11.9181 11.394 11.0968C13.072 9.17613 14.455 6.27288 13.859 2.3555C13.8215 2.10399 13.7036 1.86685 13.5189 1.67135C13.3342 1.47585 13.0902 1.32993 12.815 1.25038C11.8597 0.976508 10.8971 0.722685 9.928 0.489125C8.843 0.23275 7.69 0 7 0ZM7 4.375C7.35424 4.37454 7.69723 4.48379 7.96824 4.6834C8.23924 4.88302 8.42076 5.16011 8.48064 5.46561C8.54053 5.77111 8.47492 6.08529 8.29543 6.35252C8.11595 6.61975 7.83417 6.82277 7.5 6.92562L7.885 8.66687C7.89901 8.73021 7.89683 8.79547 7.87864 8.85798C7.86044 8.92049 7.82668 8.97871 7.77975 9.02846C7.73283 9.07821 7.67392 9.11827 7.60723 9.14577C7.54054 9.17326 7.46772 9.18751 7.394 9.1875H6.606C6.53236 9.18739 6.45966 9.17304 6.3931 9.14549C6.32653 9.11794 6.26774 9.07786 6.22093 9.02812C6.17412 8.97839 6.14044 8.92021 6.1223 8.85777C6.10416 8.79532 6.10201 8.73013 6.116 8.66687L6.5 6.92562C6.16583 6.82277 5.88405 6.61975 5.70457 6.35252C5.52508 6.08529 5.45947 5.77111 5.51936 5.46561C5.57924 5.16011 5.76076 4.88302 6.03176 4.6834C6.30277 4.48379 6.64576 4.37454 7 4.375Z" fill="#A9A9A9"/>
</svg>
